<svg id="Camada_1" data-name="Camada 1" xmlns="http://www.w3.org/2000/svg" viewBox="0 0 203.79 91.2"><defs><style>.cls-1{fill:#f7ed58;}.cls-2{fill:#e51f23;}.cls-3{fill:#32a652;}.cls-4{font-size:65.92px;}.cls-4,.cls-6{fill:#ccc;font-family:SegoeUI-Bold, Segoe UI;font-weight:700;}.cls-5{letter-spacing:-0.03em;}.cls-6{font-size:23.99px;letter-spacing:-0.01em;}.cls-7{letter-spacing:-0.02em;}.cls-8{letter-spacing:-0.07em;}.cls-9{letter-spacing:0em;}</style></defs><title>ccb-teste</title><g id="Logo"><path class="cls-1" d="M584.9,565.94a.53.53,0,0,0-1-.29c-3.38,5.55-12.56,24.07,5.08,38.35,0,0,14.06,14.06,33.11,1.34a.66.66,0,0,0-.38-1.2C613.17,604.41,583.46,602.7,584.9,565.94Z" transform="translate(-561.47 -529.91)"/><path class="cls-2" d="M580.48,544.76a2.55,2.55,0,0,0-1.93.26c-3.6,2.11-16.19,10.93-17,31.48-1,22.89,19.92,34,31.39,35.8a.38.38,0,0,0,.28-.69c-4.43-3.17-18.35-14.74-16.67-34.11.43-5,0-13.64,16.91-28.08a.74.74,0,0,0-.28-1.28Z" transform="translate(-561.47 -529.91)"/><path class="cls-3" d="M588.53,565.83a.46.46,0,0,0-.89,0C586.86,571,586,584.94,599,589c15.07,4.71,23.07-5.35,25.32-8.85a.41.41,0,0,0-.51-.6C618.41,581.92,596.13,590,588.53,565.83Z" transform="translate(-561.47 -529.91)"/></g><text class="cls-4" transform="translate(66.53 56.04) scale(1.12 1)"><tspan class="cls-5">C</tspan><tspan x="39.17" y="0">CB</tspan></text><text class="cls-6" transform="translate(67.42 80.87) scale(1.14 1)">C<tspan class="cls-7" x="14.68" y="0">O</tspan><tspan class="cls-8" x="32.5" y="0">A</tspan><tspan class="cls-9" x="47.69" y="0">TINGS</tspan></text></svg>