<svg xmlns="http://www.w3.org/2000/svg" width="212" height="42">
    <path fill="#FFFFFF" fill-rule="evenodd" d="M210.318 34.87c-1.119 1.025-2.672 1.537-4.657 1.537-2.007 0-3.565-.512-4.674-1.537-1.109-1.024-1.663-2.667-1.663-4.925v-4.768c0-2.259.554-3.9 1.663-4.925 1.109-1.024 2.667-1.537 4.674-1.537 1.985 0 3.538.513 4.657 1.537 1.12 1.025 1.68 2.666 1.68 4.925v4.768c0 2.258-.56 3.901-1.68 4.925zm-2.312-10.697c0-.669-.217-1.171-.65-1.506-.433-.334-.998-.502-1.695-.502-.697 0-1.263.168-1.696.502-.433.335-.649.837-.649 1.506v6.776c0 .67.216 1.171.649 1.505.433.335.999.502 1.696.502s1.262-.167 1.695-.502c.433-.334.65-.835.65-1.505v-6.776zm-17.57 1.349c.581.293 1.209.596 1.885.91.676.313 1.304.685 1.886 1.113.58.43 1.061.941 1.441 1.537.38.597.57 1.313.57 2.149 0 .858-.142 1.606-.427 2.243a4.577 4.577 0 0 1-1.189 1.616 5.013 5.013 0 0 1-1.821.988 7.708 7.708 0 0 1-2.298.329 9.773 9.773 0 0 1-1.774-.157 4.63 4.63 0 0 1-1.664-.674c-.538-.345-1.061-.836-1.568-1.474-.507-.638-1.004-1.49-1.489-2.557l3.58-.973c.169.796.496 1.433.982 1.914.486.481 1.13.721 1.933.721.613 0 1.088-.13 1.426-.392.338-.261.507-.632.507-1.113 0-.544-.19-.993-.57-1.349-.38-.355-.861-.674-1.442-.957a49.983 49.983 0 0 0-1.885-.863 9.518 9.518 0 0 1-1.886-1.082 5.462 5.462 0 0 1-1.441-1.584c-.38-.627-.57-1.422-.57-2.384 0-.816.152-1.522.459-2.117a4.293 4.293 0 0 1 1.22-1.475 5.462 5.462 0 0 1 1.742-.878 6.937 6.937 0 0 1 2.028-.298c1.5 0 2.757.387 3.771 1.161 1.014.773 1.763 1.809 2.25 3.105l-3.295 1.255c-.275-.795-.65-1.381-1.125-1.757a2.562 2.562 0 0 0-1.632-.565c-.465 0-.851.147-1.157.439a1.459 1.459 0 0 0-.459 1.098c0 .44.19.821.57 1.146.38.324.861.632 1.442.925zm-13.926-6.494h3.992v17.066h-3.992V19.028zm0-5.247h3.992v3.281h-3.992v-3.281zm-8.745 22.626c-.55 0-1.115-.141-1.695-.423-.582-.282-1.347-.769-2.298-1.459v6.819h-3.992V19.028h3.675v2.071h.064c.169-.272.401-.549.697-.831a5.832 5.832 0 0 1 1.014-.769c.38-.23.787-.418 1.22-.565a4.09 4.09 0 0 1 1.315-.219c1.563 0 2.682.575 3.359 1.725.675 1.151 1.013 2.834 1.013 5.051v4.14c0 2.217-.338 3.901-1.013 5.051-.677 1.15-1.796 1.725-3.359 1.725zm.38-10.665c0-.837-.053-1.522-.158-2.055-.106-.534-.249-.951-.428-1.255-.18-.303-.386-.507-.618-.612a1.843 1.843 0 0 0-.76-.157c-.846 0-1.648.408-2.409 1.224v9.348c.761.816 1.563 1.223 2.409 1.223.274 0 .527-.051.76-.156.232-.105.438-.308.618-.612.179-.303.322-.716.428-1.239.105-.522.158-1.213.158-2.07v-3.639zm-13.34-3.2c-.655 0-1.146.199-1.474.596-.327.397-.49.826-.49 1.286v11.67h-3.993V19.028h3.898v2.259h.063c.464-.857 1.014-1.5 1.647-1.929.634-.429 1.458-.643 2.472-.643v4.266a25.652 25.652 0 0 0-1.046-.298 4.237 4.237 0 0 0-1.077-.141zm-17.839 10.085c.443.387 1.003.58 1.679.58.844 0 1.447-.229 1.806-.69.359-.459.539-1.024.539-1.694h3.992c-.106 1.778-.681 3.153-1.727 4.126-1.045.972-2.582 1.458-4.61 1.458-.95 0-1.817-.141-2.598-.423a5.623 5.623 0 0 1-1.997-1.208 5.441 5.441 0 0 1-1.283-1.898c-.306-.742-.459-1.584-.459-2.525v-5.584c0-.941.153-1.782.459-2.525a5.46 5.46 0 0 1 1.283-1.898 5.652 5.652 0 0 1 1.997-1.208c.781-.282 1.648-.423 2.598-.423.929 0 1.779.141 2.551.423a6.103 6.103 0 0 1 1.996 1.177 5.33 5.33 0 0 1 1.315 1.819c.317.711.475 1.506.475 2.384v3.984H136.3v2.259c0 .858.222 1.48.666 1.866zm4.024-7.324v-.942c0-.753-.19-1.349-.571-1.788-.379-.439-.971-.659-1.774-.659s-1.394.22-1.774.659c-.381.439-.571 1.035-.571 1.788v.942h4.69zm-13.372 11.104c-1.31 0-2.355-.256-3.136-.768-.783-.513-1.173-1.385-1.173-2.62V22.981h-1.584v-3.2h1.584v-4.688h3.992v4.688h2.567v3.2h-2.567v8.721c0 .418.164.732.492.941.327.209.765.313 1.315.313h.412c.126 0 .253-.01.38-.031v3.325c-.38.063-.761.105-1.141.126-.38.021-.76.031-1.141.031zm-13.386-10.885c.58.293 1.208.596 1.885.91.676.313 1.304.685 1.885 1.113a5.74 5.74 0 0 1 1.442 1.537c.38.597.57 1.313.57 2.149 0 .858-.142 1.606-.427 2.243a4.589 4.589 0 0 1-1.189 1.616 5.02 5.02 0 0 1-1.821.988 7.708 7.708 0 0 1-2.298.329 9.773 9.773 0 0 1-1.774-.157 4.63 4.63 0 0 1-1.664-.674c-.538-.345-1.061-.836-1.568-1.474-.507-.638-1.004-1.49-1.49-2.557l3.581-.973c.169.796.496 1.433.982 1.914.486.481 1.13.721 1.933.721.613 0 1.088-.13 1.426-.392.338-.261.507-.632.507-1.113 0-.544-.19-.993-.57-1.349-.381-.355-.861-.674-1.442-.957a49.983 49.983 0 0 0-1.885-.863 9.49 9.49 0 0 1-1.886-1.082 5.462 5.462 0 0 1-1.441-1.584c-.381-.627-.571-1.422-.571-2.384 0-.816.153-1.522.46-2.117a4.293 4.293 0 0 1 1.22-1.475 5.452 5.452 0 0 1 1.742-.878 6.937 6.937 0 0 1 2.028-.298c1.5 0 2.757.387 3.771 1.161 1.014.773 1.763 1.809 2.25 3.105l-3.296 1.255c-.274-.795-.649-1.381-1.124-1.757a2.562 2.562 0 0 0-1.633-.565c-.464 0-.85.147-1.156.439a1.459 1.459 0 0 0-.459 1.098c0 .44.19.821.57 1.146.38.324.86.632 1.442.925zm-13.483 9.835c-.043-.262-.095-.57-.159-.926a7.29 7.29 0 0 1-2.059 1.427c-.782.366-1.679.549-2.693.549-1.204 0-2.166-.334-2.884-1.003-.718-.67-1.077-1.695-1.077-3.075 0-.983.222-1.84.665-2.572.444-.732 1.062-1.37 1.854-1.914.792-.543 1.721-1.024 2.788-1.443a46.11 46.11 0 0 1 3.47-1.192v-1.255c0-.731-.201-1.254-.602-1.568-.401-.314-.887-.471-1.458-.471-.612 0-1.135.199-1.568.596-.433.398-.65.9-.65 1.506h-3.992c.063-.941.285-1.751.665-2.431a5.011 5.011 0 0 1 1.442-1.647 6.045 6.045 0 0 1 1.981-.925 8.855 8.855 0 0 1 2.312-.298c1.057 0 1.959.125 2.71.376.749.251 1.357.607 1.822 1.067.464.46.802 1.009 1.014 1.647.211.638.317 1.333.317 2.086v10.822c0 .231.02.46.063.691.042.23.095.46.158.69h-3.992c-.043-.23-.085-.476-.127-.737zm-.095-7.608c-.592.209-1.173.445-1.743.706-.57.262-1.082.56-1.536.894a4.847 4.847 0 0 0-1.094 1.082 2.1 2.1 0 0 0-.412 1.24c0 .564.159 1.003.476 1.317.317.314.749.47 1.299.47.612 0 1.146-.141 1.6-.423a8.23 8.23 0 0 0 1.41-1.145v-4.141zm-16.128-9.474h-.064l-4.657 17.819h-3.296l-4.658-17.819h-.063v17.819h-3.739V13.781h6.205l3.871 14.533h.064l3.871-14.533h6.205v22.313h-3.739V18.275zm-32.961-7.417l3.032 2.158v28.975h-3.032V10.858zm-9.097 1.599l-7.27 5.174-2.596-1.848L45.5 6.603v35.388h-3.032V12.457zM34.49 28.213L.003 3.695 0 0h.001l36.258 25.777-1.769 2.436zm-5.309 7.309L12.143 23.409l.011 18.586-3.032.002-.012-20.744-6.068-4.314L3.057 42 .025 39.841.007 11.087l30.944 21.998-1.77 2.437z"/>
</svg>
