<svg xmlns="http://www.w3.org/2000/svg" width="227" height="42">
    <path fill="#FFFFFF" fill-rule="evenodd" d="M224.881 32.646c.329.21.77.313 1.323.313h.414c.127 0 .255-.009.382-.031v3.325c-.382.063-.765.105-1.147.126-.382.02-.764.031-1.147.031-1.317 0-2.368-.256-3.154-.769-.786-.512-1.178-1.384-1.178-2.619V22.986h-1.594v-3.2h1.594v-4.641h4.013v4.641H227v3.2h-2.613v8.719c0 .419.165.732.494.941zm-16.296-.016c.445.388 1.008.581 1.688.581.85 0 1.455-.23 1.816-.69.361-.46.542-1.024.542-1.694h4.014c-.106 1.778-.685 3.152-1.737 4.125-1.05.972-2.596 1.458-4.635 1.458-.955 0-1.827-.141-2.612-.423-.786-.283-1.455-.685-2.008-1.208a5.429 5.429 0 0 1-1.289-1.898c-.309-.742-.462-1.584-.462-2.524v-5.584c0-.94.153-1.782.462-2.525a5.452 5.452 0 0 1 1.289-1.897 5.691 5.691 0 0 1 2.008-1.208c.785-.282 1.657-.423 2.612-.423.935 0 1.789.141 2.565.423a6.145 6.145 0 0 1 2.007 1.177 5.338 5.338 0 0 1 1.323 1.819c.318.711.477 1.505.477 2.384v3.983h-8.73v2.258c0 .858.223 1.48.67 1.866zm4.046-7.323v-.941c0-.753-.192-1.349-.574-1.788-.382-.439-.977-.659-1.784-.659s-1.402.22-1.784.659c-.383.439-.574 1.035-.574 1.788v.941h4.716zm-16.471 8.845a18.353 18.353 0 0 1-2.183 1.599 4.322 4.322 0 0 1-2.31.659c-1.232 0-2.162-.334-2.788-1.004-.627-.669-.94-1.798-.94-3.387V19.033h4.015V31.58c0 .565.106 1.019.319 1.365.211.344.594.517 1.146.517.425 0 .86-.162 1.307-.486.445-.324.881-.675 1.306-1.051V19.033h4.014v17.063h-3.886v-1.944zm-16.409.376c-.955.69-1.726 1.176-2.31 1.459-.584.282-1.152.423-1.704.423-1.572 0-2.698-.575-3.377-1.725-.68-1.15-1.019-2.834-1.019-5.049v-4.141c0-2.216.339-3.899 1.019-5.05.679-1.15 1.805-1.725 3.377-1.725.446 0 .887.073 1.322.219.435.147.844.336 1.227.565.382.231.722.486 1.02.768.296.283.529.56.701.832h.063v-2.071h3.695v22.312h-4.014v-6.817zm0-11.636c-.764-.816-1.571-1.224-2.421-1.224-.276 0-.531.053-.765.157-.233.105-.441.309-.621.612-.181.303-.324.721-.43 1.255-.106.533-.16 1.218-.16 2.054v3.638c0 .858.054 1.548.16 2.07.106.523.249.936.43 1.239.18.304.388.508.621.612.234.105.489.157.765.157.85 0 1.657-.408 2.421-1.223v-9.347zm-13.062-.345c-.659 0-1.152.199-1.482.596-.329.397-.493.826-.493 1.286v11.667h-4.015V19.033h3.919v2.259h.064c.466-.857 1.019-1.5 1.656-1.929.638-.428 1.466-.643 2.485-.643v4.266c-.34-.105-.69-.204-1.051-.298a4.288 4.288 0 0 0-1.083-.141zm-14.241 12.812a66.401 66.401 0 0 0-.161-.925 7.347 7.347 0 0 1-2.069 1.427c-.787.366-1.69.549-2.709.549-1.211 0-2.177-.334-2.899-1.004-.723-.669-1.084-1.694-1.084-3.073 0-.983.223-1.84.67-2.572.445-.732 1.067-1.37 1.863-1.914.797-.543 1.731-1.024 2.804-1.442a45.498 45.498 0 0 1 3.489-1.192v-1.255c0-.732-.202-1.255-.605-1.568-.404-.314-.892-.471-1.466-.471-.617 0-1.142.199-1.577.596-.435.397-.653.899-.653 1.506h-4.015c.064-.941.286-1.751.67-2.431a5.007 5.007 0 0 1 1.449-1.647 6.097 6.097 0 0 1 1.991-.925 8.994 8.994 0 0 1 2.326-.298c1.062 0 1.97.125 2.724.376.754.251 1.365.607 1.832 1.067.467.46.807 1.009 1.02 1.647.212.638.319 1.333.319 2.085v10.821c0 .231.02.46.063.69.042.231.095.461.159.69h-4.014a28.264 28.264 0 0 1-.127-.737zm-.096-7.606c-.595.209-1.18.445-1.752.706a8.763 8.763 0 0 0-1.545.894 4.84 4.84 0 0 0-1.1 1.082c-.277.387-.414.8-.414 1.239 0 .565.159 1.004.477 1.317.319.314.755.471 1.307.471.616 0 1.153-.142 1.609-.424a8.241 8.241 0 0 0 1.418-1.144v-4.141zm-16.185 8.657c-.553 0-1.121-.141-1.704-.423-.585-.283-1.355-.769-2.311-1.459v6.817h-4.013V19.033h3.695v2.071h.064c.17-.272.403-.549.7-.832a5.968 5.968 0 0 1 1.02-.768 6.284 6.284 0 0 1 1.227-.565 4.131 4.131 0 0 1 1.322-.219c1.572 0 2.697.575 3.377 1.725.68 1.151 1.019 2.834 1.019 5.05v4.141c0 2.215-.339 3.899-1.019 5.049-.68 1.15-1.805 1.725-3.377 1.725zm.382-10.664c0-.836-.053-1.521-.159-2.054-.107-.534-.25-.952-.431-1.255-.18-.303-.387-.507-.62-.612a1.866 1.866 0 0 0-.765-.157c-.85 0-1.657.408-2.422 1.224v9.347c.765.815 1.572 1.223 2.422 1.223.276 0 .53-.052.765-.157.233-.104.44-.308.62-.612.181-.303.324-.716.431-1.239.106-.522.159-1.212.159-2.07v-3.638zm-17.634-.22c.584.293 1.215.596 1.896.91.679.314 1.311.685 1.895 1.113a5.74 5.74 0 0 1 1.45 1.537c.382.596.573 1.313.573 2.149 0 .858-.143 1.605-.429 2.242a4.594 4.594 0 0 1-1.196 1.616 5.05 5.05 0 0 1-1.831.988 7.821 7.821 0 0 1-2.31.329 9.884 9.884 0 0 1-1.784-.157 4.664 4.664 0 0 1-1.673-.674c-.541-.345-1.067-.836-1.577-1.474s-1.009-1.49-1.497-2.557l3.6-.972c.169.795.498 1.432.987 1.913.489.481 1.137.722 1.944.722.616 0 1.094-.131 1.434-.392.339-.262.509-.632.509-1.114 0-.543-.191-.993-.573-1.348-.383-.356-.866-.675-1.45-.957a48.561 48.561 0 0 0-1.896-.863 9.56 9.56 0 0 1-1.895-1.082 5.448 5.448 0 0 1-1.449-1.584c-.383-.627-.574-1.421-.574-2.383 0-.816.154-1.522.462-2.118a4.295 4.295 0 0 1 1.227-1.474 5.509 5.509 0 0 1 1.751-.878 7.052 7.052 0 0 1 2.04-.298c1.508 0 2.771.387 3.791 1.161 1.019.773 1.773 1.808 2.262 3.105l-3.313 1.254c-.277-.794-.653-1.38-1.131-1.756a2.577 2.577 0 0 0-1.641-.565c-.468 0-.855.147-1.163.439a1.454 1.454 0 0 0-.462 1.098c0 .439.191.821.574 1.145.382.324.865.633 1.449.925zm-13.333 8.626a18.273 18.273 0 0 1-2.183 1.599 4.319 4.319 0 0 1-2.309.659c-1.232 0-2.162-.334-2.788-1.004-.627-.669-.94-1.798-.94-3.387V19.033h4.014V31.58c0 .565.106 1.019.319 1.365.212.344.594.517 1.147.517.425 0 .86-.162 1.306-.486a17.46 17.46 0 0 0 1.306-1.051V19.033h4.014v17.063h-3.886v-1.944zm-16.089-.126h-.064a4.42 4.42 0 0 1-.701.832 5.87 5.87 0 0 1-1.019.768c-.383.23-.792.418-1.227.564-.436.146-.876.22-1.322.22-1.573 0-2.699-.575-3.378-1.725-.68-1.15-1.019-2.834-1.019-5.049v-4.141c0-2.216.339-3.899 1.019-5.05.679-1.15 1.805-1.725 3.378-1.725.551 0 1.12.141 1.704.423.584.283 1.354.769 2.31 1.459v-6.815h4.014v22.309h-3.695v-2.07zm-.319-11.134c-.765-.816-1.572-1.224-2.422-1.224-.276 0-.531.053-.764.157-.234.105-.441.309-.621.612-.181.303-.325.721-.431 1.255-.106.533-.159 1.218-.159 2.054v3.638c0 .858.053 1.548.159 2.07.106.523.25.936.431 1.239.18.304.387.508.621.612.233.105.488.157.764.157.85 0 1.657-.408 2.422-1.223v-9.347zm-16.281.658c0-.564-.106-1.019-.318-1.364-.213-.345-.595-.518-1.147-.518-.425 0-.86.163-1.307.486-.446.325-.881.675-1.306 1.051v12.891h-4.014V19.033h3.887v1.946a18.2 18.2 0 0 1 2.182-1.6 4.313 4.313 0 0 1 2.31-.659c1.232 0 2.161.335 2.788 1.004.626.669.939 1.798.939 3.387v12.985h-4.014V23.55zm-16.981-9.763h4.396v22.309h-4.396V13.787zM30.424 28.246v10.755c0 1.658-1.363 3-3.043 3-1.681 0-3.044-1.342-3.044-3v-4.756l-6.978 6.878a3.065 3.065 0 0 1-2.152.878c-.806 0-1.58-.316-2.151-.878L.883 29.124a2.967 2.967 0 0 1 0-4.241l11.282-11.121V3.007c0-1.657 1.362-3 3.042-3 1.682 0 3.044 1.343 3.044 3v4.756L25.229.886a3.074 3.074 0 0 1 4.304 0l12.173 11.998c.57.563.891 1.326.891 2.121a2.98 2.98 0 0 1-.891 2.121l-11.282 11.12zM12.165 15.884L1.958 25.943a1.488 1.488 0 0 0 .001 2.121l10.206 10.059V15.884zM24.337 3.885l-6.086 5.999v28.239l6.086-5.999V3.885zm9.837 10.06l-3.75-3.696v9.513l3.75-3.696a1.49 1.49 0 0 0 0-2.121z"/>
</svg>
