<svg id="Camada_1" data-name="Camada 1" xmlns="http://www.w3.org/2000/svg" viewBox="0 0 189.53 86"><defs><style>.cls-1{fill:#f7ed58;}.cls-2{fill:#e51f23;}.cls-3{fill:#32a652;}.cls-4{font-size:63.7px;font-family:FranklinGothic-Heavy, Franklin Gothic Heavy;font-weight:800;}.cls-4,.cls-5{fill:#ccc;}.cls-5{font-size:24.65px;font-family:Calibri-Bold, Calibri;font-weight:700;letter-spacing:-0.01em;}.cls-6{letter-spacing:-0.01em;}.cls-7{letter-spacing:-0.08em;}.cls-8{letter-spacing:0em;}</style></defs><title>logo-ccb</title><g id="Logo"><path class="cls-1" d="M584.9,565.94a.53.53,0,0,0-1-.29c-3.38,5.55-12.56,24.07,5.08,38.35,0,0,14.06,14.06,33.11,1.34a.66.66,0,0,0-.38-1.2C613.17,604.41,583.46,602.7,584.9,565.94Z" transform="translate(-561.47 -534)"/><path class="cls-2" d="M580.48,544.76a2.55,2.55,0,0,0-1.93.26c-3.6,2.11-16.19,10.93-17,31.48-1,22.89,19.92,34,31.39,35.8a.38.38,0,0,0,.28-.69c-4.43-3.17-18.35-14.74-16.67-34.11.43-5,0-13.64,16.91-28.08a.74.74,0,0,0-.28-1.28Z" transform="translate(-561.47 -534)"/><path class="cls-3" d="M588.53,565.83a.46.46,0,0,0-.89,0C586.86,571,586,584.94,599,589c15.07,4.71,23.07-5.35,25.32-8.85a.41.41,0,0,0-.51-.6C618.41,581.92,596.13,590,588.53,565.83Z" transform="translate(-561.47 -534)"/></g><text class="cls-4" transform="translate(66.72 53.1) scale(1.02 1)">CCB</text><text class="cls-5" transform="translate(68.39 77.39) scale(1.14 1)">C<tspan class="cls-6" x="12.87" y="0">O</tspan><tspan class="cls-7" x="29.2" y="0">A</tspan><tspan class="cls-8" x="42.22" y="0">TINGS</tspan></text></svg>