<svg id="Camada_1" data-name="Camada 1" xmlns="http://www.w3.org/2000/svg" xmlns:xlink="http://www.w3.org/1999/xlink" viewBox="0 0 350 350"><defs><style>.cls-1{fill:url(#Gradiente_sem_nome_11);}.cls-2,.cls-8{fill:none;}.cls-2,.cls-4{stroke:#000;stroke-linecap:round;stroke-linejoin:round;}.cls-2{stroke-width:8px;}.cls-3{fill:#222;}.cls-4{fill:#a817d4;stroke-width:5px;}.cls-5{font-size:36.35px;fill:#fff;font-family:Roboto-Bold, Roboto;font-weight:700;}.cls-6{letter-spacing:0.01em;}.cls-7{letter-spacing:0em;}.cls-8{stroke:#222;stroke-miterlimit:10;}.cls-9{fill:#f7ed58;}.cls-10{fill:#e51f23;}.cls-11{fill:#32a652;}</style><linearGradient id="Gradiente_sem_nome_11" x1="175" y1="350" x2="175" gradientUnits="userSpaceOnUse"><stop offset="0" stop-color="#d49502"/><stop offset="1" stop-color="#ebbf0f"/></linearGradient></defs><title>Resinas</title><circle class="cls-1" cx="175" cy="175" r="175"/><ellipse class="cls-2" cx="175" cy="94.5" rx="88" ry="80.5"/><path class="cls-3" d="M688,515.5c0-6.73-6.21-12.21-14-12.47v0H506.15v0c-.19,0-.38,0-.58,0-8.05,0-14.57,5.6-14.57,12.5s6.52,12.5,14.57,12.5c.2,0,.39,0,.58,0V720H674V528C681.79,527.71,688,522.23,688,515.5Z" transform="translate(-415 -407)"/><path class="cls-2" d="M688,515.5c0-6.73-6.21-12.21-14-12.47v0H506.15v0c-.19,0-.38,0-.58,0-8.05,0-14.57,5.6-14.57,12.5s6.52,12.5,14.57,12.5c.2,0,.39,0,.58,0V720H674V528C681.79,527.71,688,522.23,688,515.5Z" transform="translate(-415 -407)"/><path class="cls-4" d="M537.5,505v30c0,5.24,4.7,9.5,10.5,9.5h0c5.8,0,10.5-4.26,10.5-9.5v-8.75a5.58,5.58,0,0,1,5.83-5.29h6.34a5.58,5.58,0,0,1,5.83,5.29h0c0,3.58,3.21,6.48,7.17,6.48h.83c4.42,0,8-3.24,8-7.24V505Z" transform="translate(-415 -407)"/><text class="cls-5" transform="translate(101.92 268)">RESI<tspan class="cls-6" x="76.52" y="0">N</tspan><tspan class="cls-7" x="102.48" y="0">AS</tspan></text><path class="cls-8" d="M578.5,544.5" transform="translate(-415 -407)"/><g id="Logo"><path class="cls-9" d="M584.9,565.94a.53.53,0,0,0-1-.29c-3.38,5.55-12.56,24.07,5.08,38.35,0,0,14.06,14.06,33.11,1.34a.66.66,0,0,0-.38-1.2C613.17,604.41,583.46,602.7,584.9,565.94Z" transform="translate(-415 -407)"/><path class="cls-10" d="M580.48,544.76a2.55,2.55,0,0,0-1.93.26c-3.6,2.11-16.19,10.93-17,31.48-1,22.89,19.92,34,31.39,35.8a.38.38,0,0,0,.28-.69c-4.43-3.17-18.35-14.74-16.67-34.11.43-5,0-13.64,16.91-28.08a.74.74,0,0,0-.28-1.28Z" transform="translate(-415 -407)"/><path class="cls-11" d="M588.53,565.83a.46.46,0,0,0-.89,0C586.86,571,586,584.94,599,589c15.07,4.71,23.07-5.35,25.32-8.85a.41.41,0,0,0-.51-.6C618.41,581.92,596.13,590,588.53,565.83Z" transform="translate(-415 -407)"/></g></svg>